<svg xmlns="http://www.w3.org/2000/svg" viewBox="0 0 883.59 386.89"><defs><style>.cls-1{font-size:174px;fill:#fff;font-family:PhillySans-Regular, Philly Sans;}</style></defs><g id="Calque_2" data-name="Calque 2"><g id="Calque_1-2" data-name="Calque 1"><rect x="13.88" y="66.57" width="855.82" height="242.99" transform="translate(-24.3 72.72) rotate(-9.16)"/><path d="M883.59,240c-9.81,16.42-7,30.58-22.34,44.27-4.91,4.95-6.26,11.7-6.3,18.66-1.21,16.82,8.57,36.24-4.51,50-1.63,1.77-2.26,5.08-5.23,4.2-3.26-1-4.48-4.57-4.11-7.54,1.68-13.69-4.47-26.6-2.32-40.44,1.21-5-.35-27.45-8.56-22-8.92,9.83,1,21.69-6.55,25.81-5.22,2.32-3.07-6.71-6.9-6.86-.58,6.64,4.27,18.62-3.66,21.7-3.08.76-4.54-2.17-5.44-5-4.2-11.29.49-23.86-.86-35.78-.16-14.86-13.45-6.88-15.63-16.75-1.64-3.82-9.48-3-6.72,3.27,1,2.14-1.4,1.76-2.05,2.77-2.43,3.76-5.52,7.16-7.13,11.35-.8,2.08-.65,4-2.73,5.82-5.37,6.22-26.63,21.45-25.8,28.36-1,9,6.45,49.76-5.19,49.64-8.15-2-1.8-16.84-11.37-18.37-6.4-3.09-2.28-9.9-5.86-16-.76,11.27-4.7,17.57-3,28.48,1,6.85-6.86,13.2-10.25,5-2.67-11.15-5.85-22.28-7.06-33.69-.82-7.85,1.31-15-3.7-23.16-6.35-10.31-7.77-12.77-16.17-5.24-4,3.6-10.25,5.77-10.55,13-.75,17.75-2.57,35.52-.61,53.29.48,4.33.47,8.3-1.19,12.19H661.63c-1.29-5.7-.51-12.23-5.28-16.56-.88-.79-1-3.3-.89-5,.94-15.1-1-30.15-.19-45.32.63-11.79-2.66-19.73-16.28-18.18-5.92-.26-1.62-14.39-8.92-13.53-2.78.42-1.7,4.06-1.55,6.23,1.2,17.13-2.13,34.13-1,51.26-.49,5.4-1.2,15.36-7.93,15.67-3.76.17-5.44-3.42-6.6-6.92-6-16.71-1.46-34.92-2-52.26,0-17.86-3.11-12.66-12.81-22.33-5.94-9.31-17-15.08-19.9-25.91-1-4.94-1-11.91-3.69-14.19"/><text class="cls-1" transform="translate(49.42 235.63)">street ART</text></g></g></svg>